<svg width="22" height="34" viewBox="0 0 22 34" fill="none" xmlns="http://www.w3.org/2000/svg">
<g clip-path="url(#clip0_7_149)">
<path d="M5.5011 34C8.53649 34 11 31.4613 11 28.3333V22.6667H5.5011C2.4657 22.6667 0.00219727 25.2053 0.00219727 28.3333C0.00219727 31.4613 2.4657 34 5.5011 34Z" fill="#0ACF83"/>
<path d="M0.00219727 17C0.00219727 13.872 2.4657 11.3333 5.5011 11.3333H11V22.6667H5.5011C2.4657 22.6667 0.00219727 20.128 0.00219727 17Z" fill="#A259FF"/>
<path d="M0.00240326 5.66667C0.00240326 2.53867 2.46591 0 5.5013 0H11.0002V11.3333H5.5013C2.46591 11.3333 0.00240326 8.79467 0.00240326 5.66667Z" fill="#F24E1E"/>
<path d="M11 0H16.4989C19.5343 0 21.9978 2.53867 21.9978 5.66667C21.9978 8.79467 19.5343 11.3333 16.4989 11.3333H11V0Z" fill="#FF7262"/>
<path d="M21.9978 17C21.9978 20.128 19.5343 22.6667 16.4989 22.6667C13.4635 22.6667 11 20.128 11 17C11 13.872 13.4635 11.3333 16.4989 11.3333C19.5343 11.3333 21.9978 13.872 21.9978 17Z" fill="#1ABCFE"/>
</g>
<defs>
<clipPath id="clip0_7_149">
<rect width="22" height="34" fill="white"/>
</clipPath>
</defs>
</svg>
