<svg width="36" height="37" viewBox="0 0 36 37" fill="none" xmlns="http://www.w3.org/2000/svg">
<path d="M7.62187 0H9.23906V1.64766H10.7297V0H12.3469V4.98633H10.7297V3.32422H9.25312V4.98633H7.62187M14.4844 1.66211H13.057V0H17.5359V1.66211H16.1016V4.98633H14.4844M18.2461 0H19.9406L20.9812 1.75605L22.0219 0H23.7164V4.98633H22.0992V2.51484L20.9672 4.30703L19.8352 2.51484V4.98633H18.2461M24.518 0H26.1352V3.33867H28.4273V4.98633H24.518" fill="black"/>
<path d="M7.56563 34.0371L5.24532 7.26993H30.7547L28.4344 34.0227L17.9789 37" fill="#E44D26"/>
<path d="M18 34.7236V9.4668H28.4273L26.4375 32.3027" fill="#F16529"/>
<path d="M9.98438 12.7404H18V16.0213H13.4859L13.7812 19.3816H18V22.6553H10.8562M10.9969 24.3029H14.2031L14.4281 26.9262L18 27.909V31.3344L11.4469 29.4555" fill="#EBEBEB"/>
<path d="M25.9875 12.7404H17.9859V16.0213H25.6922M25.4039 19.3816H17.9859V22.6625H21.9234L21.5508 26.9262L17.9859 27.909V31.3199L24.525 29.4555" fill="white"/>
</svg>
